<?xml version="1.0" encoding="UTF-8" standalone="no"?>
<!DOCTYPE svg PUBLIC "-//W3C//DTD SVG 1.1//EN"
 "http://www.w3.org/Graphics/SVG/1.1/DTD/svg11.dtd">
<!-- Generated by graphviz version 2.43.0 (0)
 -->
<!-- Title: %3 Pages: 1 -->
<svg width="1578pt" height="332pt"
 viewBox="0.00 0.00 1578.18 332.00" xmlns="http://www.w3.org/2000/svg" xmlns:xlink="http://www.w3.org/1999/xlink">
<g id="graph0" class="graph" transform="scale(1 1) rotate(0) translate(4 328)">
<title>%3</title>
<polygon fill="white" stroke="transparent" points="-4,4 -4,-328 1574.18,-328 1574.18,4 -4,4"/>
<!-- [root] local_file.pet (expand) -->
<g id="node1" class="node">
<title>[root] local_file.pet (expand)</title>
<polygon fill="none" stroke="black" points="1271.2,-180 1165.2,-180 1165.2,-144 1271.2,-144 1271.2,-180"/>
<text text-anchor="middle" x="1218.2" y="-158.3" font-family="Times,serif" font-size="14.00">local_file.pet</text>
</g>
<!-- [root] provider[&quot;registry.terraform.io/hashicorp/local&quot;] -->
<g id="node3" class="node">
<title>[root] provider[&quot;registry.terraform.io/hashicorp/local&quot;]</title>
<polygon fill="none" stroke="black" points="1240.2,-108 910.24,-90 1240.2,-72 1570.15,-90 1240.2,-108"/>
<text text-anchor="middle" x="1240.2" y="-86.3" font-family="Times,serif" font-size="14.00">provider[&quot;registry.terraform.io/hashicorp/local&quot;]</text>
</g>
<!-- [root] local_file.pet (expand)&#45;&gt;[root] provider[&quot;registry.terraform.io/hashicorp/local&quot;] -->
<g id="edge1" class="edge">
<title>[root] local_file.pet (expand)&#45;&gt;[root] provider[&quot;registry.terraform.io/hashicorp/local&quot;]</title>
<path fill="none" stroke="black" d="M1223.64,-143.7C1226.09,-135.9 1229.04,-126.51 1231.77,-117.83"/>
<polygon fill="black" stroke="black" points="1235.16,-118.69 1234.82,-108.1 1228.49,-116.59 1235.16,-118.69"/>
</g>
<!-- [root] random_pet.my&#45;pet (expand) -->
<g id="node5" class="node">
<title>[root] random_pet.my&#45;pet (expand)</title>
<polygon fill="none" stroke="black" points="892.7,-108 737.7,-108 737.7,-72 892.7,-72 892.7,-108"/>
<text text-anchor="middle" x="815.2" y="-86.3" font-family="Times,serif" font-size="14.00">random_pet.my&#45;pet</text>
</g>
<!-- [root] local_file.pet (expand)&#45;&gt;[root] random_pet.my&#45;pet (expand) -->
<g id="edge2" class="edge">
<title>[root] local_file.pet (expand)&#45;&gt;[root] random_pet.my&#45;pet (expand)</title>
<path fill="none" stroke="black" d="M1164.87,-145.91C1161.94,-145.23 1159.04,-144.59 1156.2,-144 1047.29,-121.48 1015.82,-126.77 903.05,-108.26"/>
<polygon fill="black" stroke="black" points="903.42,-104.77 892.98,-106.57 902.27,-111.67 903.42,-104.77"/>
</g>
<!-- [root] output.pet&#45;name -->
<g id="node2" class="node">
<title>[root] output.pet&#45;name</title>
<polygon fill="none" stroke="black" points="504.7,-180 375.7,-180 375.7,-144 510.7,-144 510.7,-174 504.7,-180"/>
<polyline fill="none" stroke="black" points="504.7,-180 504.7,-174 "/>
<polyline fill="none" stroke="black" points="510.7,-174 504.7,-174 "/>
<text text-anchor="middle" x="443.2" y="-158.3" font-family="Times,serif" font-size="14.00">output.pet&#45;name</text>
</g>
<!-- [root] output.pet&#45;name&#45;&gt;[root] random_pet.my&#45;pet (expand) -->
<g id="edge3" class="edge">
<title>[root] output.pet&#45;name&#45;&gt;[root] random_pet.my&#45;pet (expand)</title>
<path fill="none" stroke="black" d="M510.77,-145.92C513.96,-145.26 517.11,-144.62 520.2,-144 589.65,-130.1 668.66,-116 727.41,-105.84"/>
<polygon fill="black" stroke="black" points="728.14,-109.26 737.4,-104.11 726.95,-102.36 728.14,-109.26"/>
</g>
<!-- [root] provider[&quot;registry.terraform.io/hashicorp/random&quot;] -->
<g id="node4" class="node">
<title>[root] provider[&quot;registry.terraform.io/hashicorp/random&quot;]</title>
<polygon fill="none" stroke="black" points="350.2,-36 -0.2,-18 350.2,0 700.6,-18 350.2,-36"/>
<text text-anchor="middle" x="350.2" y="-14.3" font-family="Times,serif" font-size="14.00">provider[&quot;registry.terraform.io/hashicorp/random&quot;]</text>
</g>
<!-- [root] random_pet.my&#45;pet (expand)&#45;&gt;[root] provider[&quot;registry.terraform.io/hashicorp/random&quot;] -->
<g id="edge6" class="edge">
<title>[root] random_pet.my&#45;pet (expand)&#45;&gt;[root] provider[&quot;registry.terraform.io/hashicorp/random&quot;]</title>
<path fill="none" stroke="black" d="M737.63,-77.32C657.1,-65.2 531.05,-46.23 444.74,-33.23"/>
<polygon fill="black" stroke="black" points="445.09,-29.75 434.68,-31.72 444.05,-36.67 445.09,-29.75"/>
</g>
<!-- [root] var.length -->
<g id="node8" class="node">
<title>[root] var.length</title>
<polygon fill="none" stroke="black" points="801.7,-36 718.7,-36 718.7,0 807.7,0 807.7,-30 801.7,-36"/>
<polyline fill="none" stroke="black" points="801.7,-36 801.7,-30 "/>
<polyline fill="none" stroke="black" points="807.7,-30 801.7,-30 "/>
<text text-anchor="middle" x="763.2" y="-14.3" font-family="Times,serif" font-size="14.00">var.length</text>
</g>
<!-- [root] random_pet.my&#45;pet (expand)&#45;&gt;[root] var.length -->
<g id="edge7" class="edge">
<title>[root] random_pet.my&#45;pet (expand)&#45;&gt;[root] var.length</title>
<path fill="none" stroke="black" d="M802.34,-71.7C796.17,-63.39 788.66,-53.28 781.87,-44.14"/>
<polygon fill="black" stroke="black" points="784.68,-42.04 775.9,-36.1 779.06,-46.22 784.68,-42.04"/>
</g>
<!-- [root] var.prefix -->
<g id="node9" class="node">
<title>[root] var.prefix</title>
<polygon fill="none" stroke="black" points="903.2,-36 825.2,-36 825.2,0 909.2,0 909.2,-30 903.2,-36"/>
<polyline fill="none" stroke="black" points="903.2,-36 903.2,-30 "/>
<polyline fill="none" stroke="black" points="909.2,-30 903.2,-30 "/>
<text text-anchor="middle" x="867.2" y="-14.3" font-family="Times,serif" font-size="14.00">var.prefix</text>
</g>
<!-- [root] random_pet.my&#45;pet (expand)&#45;&gt;[root] var.prefix -->
<g id="edge8" class="edge">
<title>[root] random_pet.my&#45;pet (expand)&#45;&gt;[root] var.prefix</title>
<path fill="none" stroke="black" d="M828.05,-71.7C834.22,-63.39 841.74,-53.28 848.52,-44.14"/>
<polygon fill="black" stroke="black" points="851.34,-46.22 854.49,-36.1 845.72,-42.04 851.34,-46.22"/>
</g>
<!-- [root] var.seperator -->
<g id="node10" class="node">
<title>[root] var.seperator</title>
<polygon fill="none" stroke="black" points="1033.2,-36 927.2,-36 927.2,0 1039.2,0 1039.2,-30 1033.2,-36"/>
<polyline fill="none" stroke="black" points="1033.2,-36 1033.2,-30 "/>
<polyline fill="none" stroke="black" points="1039.2,-30 1033.2,-30 "/>
<text text-anchor="middle" x="983.2" y="-14.3" font-family="Times,serif" font-size="14.00">var.seperator</text>
</g>
<!-- [root] random_pet.my&#45;pet (expand)&#45;&gt;[root] var.seperator -->
<g id="edge9" class="edge">
<title>[root] random_pet.my&#45;pet (expand)&#45;&gt;[root] var.seperator</title>
<path fill="none" stroke="black" d="M856.3,-71.88C879.37,-62.26 908.33,-50.19 932.77,-40.01"/>
<polygon fill="black" stroke="black" points="934.35,-43.15 942.23,-36.07 931.66,-36.68 934.35,-43.15"/>
</g>
<!-- [root] var.content -->
<g id="node6" class="node">
<title>[root] var.content</title>
<polygon fill="none" stroke="black" points="681.7,-252 590.7,-252 590.7,-216 687.7,-216 687.7,-246 681.7,-252"/>
<polyline fill="none" stroke="black" points="681.7,-252 681.7,-246 "/>
<polyline fill="none" stroke="black" points="687.7,-246 681.7,-246 "/>
<text text-anchor="middle" x="639.2" y="-230.3" font-family="Times,serif" font-size="14.00">var.content</text>
</g>
<!-- [root] var.filename -->
<g id="node7" class="node">
<title>[root] var.filename</title>
<polygon fill="none" stroke="black" points="804.2,-252 706.2,-252 706.2,-216 810.2,-216 810.2,-246 804.2,-252"/>
<polyline fill="none" stroke="black" points="804.2,-252 804.2,-246 "/>
<polyline fill="none" stroke="black" points="810.2,-246 804.2,-246 "/>
<text text-anchor="middle" x="758.2" y="-230.3" font-family="Times,serif" font-size="14.00">var.filename</text>
</g>
<!-- [root] provider[&quot;registry.terraform.io/hashicorp/local&quot;] (close) -->
<g id="node11" class="node">
<title>[root] provider[&quot;registry.terraform.io/hashicorp/local&quot;] (close)</title>
<ellipse fill="none" stroke="black" cx="1190.2" cy="-234" rx="295.95" ry="18"/>
<text text-anchor="middle" x="1190.2" y="-230.3" font-family="Times,serif" font-size="14.00">[root] provider[&quot;registry.terraform.io/hashicorp/local&quot;] (close)</text>
</g>
<!-- [root] provider[&quot;registry.terraform.io/hashicorp/local&quot;] (close)&#45;&gt;[root] local_file.pet (expand) -->
<g id="edge4" class="edge">
<title>[root] provider[&quot;registry.terraform.io/hashicorp/local&quot;] (close)&#45;&gt;[root] local_file.pet (expand)</title>
<path fill="none" stroke="black" d="M1197.12,-215.7C1200.27,-207.81 1204.08,-198.3 1207.58,-189.55"/>
<polygon fill="black" stroke="black" points="1210.89,-190.69 1211.36,-180.1 1204.39,-188.09 1210.89,-190.69"/>
</g>
<!-- [root] provider[&quot;registry.terraform.io/hashicorp/random&quot;] (close) -->
<g id="node12" class="node">
<title>[root] provider[&quot;registry.terraform.io/hashicorp/random&quot;] (close)</title>
<ellipse fill="none" stroke="black" cx="838.2" cy="-162" rx="309.25" ry="18"/>
<text text-anchor="middle" x="838.2" y="-158.3" font-family="Times,serif" font-size="14.00">[root] provider[&quot;registry.terraform.io/hashicorp/random&quot;] (close)</text>
</g>
<!-- [root] provider[&quot;registry.terraform.io/hashicorp/random&quot;] (close)&#45;&gt;[root] random_pet.my&#45;pet (expand) -->
<g id="edge5" class="edge">
<title>[root] provider[&quot;registry.terraform.io/hashicorp/random&quot;] (close)&#45;&gt;[root] random_pet.my&#45;pet (expand)</title>
<path fill="none" stroke="black" d="M832.51,-143.7C829.95,-135.9 826.87,-126.51 824.01,-117.83"/>
<polygon fill="black" stroke="black" points="827.27,-116.51 820.82,-108.1 820.62,-118.7 827.27,-116.51"/>
</g>
<!-- [root] root -->
<g id="node13" class="node">
<title>[root] root</title>
<ellipse fill="none" stroke="black" cx="758.2" cy="-306" rx="58.49" ry="18"/>
<text text-anchor="middle" x="758.2" y="-302.3" font-family="Times,serif" font-size="14.00">[root] root</text>
</g>
<!-- [root] root&#45;&gt;[root] output.pet&#45;name -->
<g id="edge10" class="edge">
<title>[root] root&#45;&gt;[root] output.pet&#45;name</title>
<path fill="none" stroke="black" d="M711.8,-294.91C675.32,-286.08 623.73,-271.6 581.2,-252 541.95,-233.91 500.79,-206.04 473.75,-186.31"/>
<polygon fill="black" stroke="black" points="475.61,-183.33 465.49,-180.21 471.46,-188.97 475.61,-183.33"/>
</g>
<!-- [root] root&#45;&gt;[root] var.content -->
<g id="edge13" class="edge">
<title>[root] root&#45;&gt;[root] var.content</title>
<path fill="none" stroke="black" d="M732.38,-289.81C716.31,-280.36 695.36,-268.04 677.4,-257.47"/>
<polygon fill="black" stroke="black" points="678.71,-254.18 668.31,-252.13 675.16,-260.21 678.71,-254.18"/>
</g>
<!-- [root] root&#45;&gt;[root] var.filename -->
<g id="edge14" class="edge">
<title>[root] root&#45;&gt;[root] var.filename</title>
<path fill="none" stroke="black" d="M758.2,-287.7C758.2,-279.98 758.2,-270.71 758.2,-262.11"/>
<polygon fill="black" stroke="black" points="761.7,-262.1 758.2,-252.1 754.7,-262.1 761.7,-262.1"/>
</g>
<!-- [root] root&#45;&gt;[root] provider[&quot;registry.terraform.io/hashicorp/local&quot;] (close) -->
<g id="edge11" class="edge">
<title>[root] root&#45;&gt;[root] provider[&quot;registry.terraform.io/hashicorp/local&quot;] (close)</title>
<path fill="none" stroke="black" d="M808.6,-296.83C875.14,-286.05 994.09,-266.78 1081.55,-252.6"/>
<polygon fill="black" stroke="black" points="1082.21,-256.04 1091.52,-250.99 1081.09,-249.13 1082.21,-256.04"/>
</g>
<!-- [root] root&#45;&gt;[root] provider[&quot;registry.terraform.io/hashicorp/random&quot;] (close) -->
<g id="edge12" class="edge">
<title>[root] root&#45;&gt;[root] provider[&quot;registry.terraform.io/hashicorp/random&quot;] (close)</title>
<path fill="none" stroke="black" d="M782.77,-289.43C795.54,-280.1 810.29,-267.1 819.2,-252 830.27,-233.23 834.93,-208.85 836.87,-190.35"/>
<polygon fill="black" stroke="black" points="840.37,-190.49 837.72,-180.23 833.39,-189.9 840.37,-190.49"/>
</g>
</g>
</svg>
